[Header]
FileType HTR
DataType HTRS
FileVersion 1
NumSegments 64
NumFrames 4
DataFrameRate 24
EulerRotationOrder ZYX
CalibrationUnits mm
RotationUnits Degrees
GlobalAxisofGravity Y
BoneLengthAxis Y
ScaleFactor 1.0
[SegmentNames&Hierarchy]
Hips	GLOBAL
Spine	Hips
Spine1	Spine
Spine2	Spine1
Neck	Spine2
Head	Neck
LeftEye	Head
RightEye	Head
LeftShoulder	Spine2
LeftArm	LeftShoulder
LeftForeArm	LeftArm
LeftHand	LeftForeArm
LeftHandThumb1	LeftHand
LeftHandThumb2	LeftHandThumb1
LeftHandThumb3	LeftHandThumb2
LeftHandThumb4	LeftHandThumb3
LeftHandIndex1	LeftHand
LeftHandIndex2	LeftHandIndex1
LeftHandIndex3	LeftHandIndex2
LeftHandIndex4	LeftHandIndex3
LeftHandMiddle1	LeftHand
LeftHandMiddle2	LeftHandMiddle1
LeftHandMiddle3	LeftHandMiddle2
LeftHandMiddle4	LeftHandMiddle3
LeftHandRing1	LeftHand
LeftHandRing2	LeftHandRing1
LeftHandRing3	LeftHandRing2
LeftHandRing4	LeftHandRing3
LeftHandPinky1	LeftHand
LeftHandPinky2	LeftHandPinky1
LeftHandPinky3	LeftHandPinky2
LeftHandPinky4	LeftHandPinky3
RightShoulder	Spine2
RightArm	RightShoulder
RightForeArm	RightArm
RightHand	RightForeArm
RightHandPinky1	RightHand
RightHandPinky2	RightHandPinky1
RightHandPinky3	RightHandPinky2
RightHandPinky4	RightHandPinky3
RightHandRing1	RightHand
RightHandRing2	RightHandRing1
RightHandRing3	RightHandRing2
RightHandRing4	RightHandRing3
RightHandMiddle1	RightHand
RightHandMiddle2	RightHandMiddle1
RightHandMiddle3	RightHandMiddle2
RightHandMiddle4	RightHandMiddle3
RightHandIndex1	RightHand
RightHandIndex2	RightHandIndex1
RightHandIndex3	RightHandIndex2
RightHandIndex4	RightHandIndex3
RightHandThumb1	RightHand
RightHandThumb2	RightHandThumb1
RightHandThumb3	RightHandThumb2
RightHandThumb4	RightHandThumb3
LeftUpLeg	Hips
LeftLeg	LeftUpLeg
LeftFoot	LeftLeg
LeftToeBase	LeftFoot
RightUpLeg	Hips
RightLeg	RightUpLeg
RightFoot	RightLeg
RightToeBase	RightFoot
[BasePosition]
Hips	0	0	0	0	0	0	1
Spine	0	0	0	0	0	0	1
Spine1	0	0	0	0	0	0	1
Spine2	0	0	0	0	0	0	1
Neck	0	0	0	0	0	0	1
Head	0	0	0	0	0	0	1
LeftEye	0	0	0	0	0	0	1
RightEye	0	0	0	0	0	0	1
LeftShoulder	0	0	0	0	0	0	1
LeftArm	0	0	0	0	0	0	1
LeftForeArm	0	0	0	0	0	0	1
LeftHand	0	0	0	0	0	0	1
LeftHandThumb1	0	0	0	0	0	0	1
LeftHandThumb2	0	0	0	0	0	0	1
LeftHandThumb3	0	0	0	0	0	0	1
LeftHandThumb4	0	0	0	0	0	0	1
LeftHandIndex1	0	0	0	0	0	0	1
LeftHandIndex2	0	0	0	0	0	0	1
LeftHandIndex3	0	0	0	0	0	0	1
LeftHandIndex4	0	0	0	0	0	0	1
LeftHandMiddle1	0	0	0	0	0	0	1
LeftHandMiddle2	0	0	0	0	0	0	1
LeftHandMiddle3	0	0	0	0	0	0	1
LeftHandMiddle4	0	0	0	0	0	0	1
LeftHandRing1	0	0	0	0	0	0	1
LeftHandRing2	0	0	0	0	0	0	1
LeftHandRing3	0	0	0	0	0	0	1
LeftHandRing4	0	0	0	0	0	0	1
LeftHandPinky1	0	0	0	0	0	0	1
LeftHandPinky2	0	0	0	0	0	0	1
LeftHandPinky3	0	0	0	0	0	0	1
LeftHandPinky4	0	0	0	0	0	0	1
RightShoulder	0	0	0	0	0	0	1
RightArm	0	0	0	0	0	0	1
RightForeArm	0	0	0	0	0	0	1
RightHand	0	0	0	0	0	0	1
RightHandPinky1	0	0	0	0	0	0	1
RightHandPinky2	0	0	0	0	0	0	1
RightHandPinky3	0	0	0	0	0	0	1
RightHandPinky4	0	0	0	0	0	0	1
RightHandRing1	0	0	0	0	0	0	1
RightHandRing2	0	0	0	0	0	0	1
RightHandRing3	0	0	0	0	0	0	1
RightHandRing4	0	0	0	0	0	0	1
RightHandMiddle1	0	0	0	0	0	0	1
RightHandMiddle2	0	0	0	0	0	0	1
RightHandMiddle3	0	0	0	0	0	0	1
RightHandMiddle4	0	0	0	0	0	0	1
RightHandIndex1	0	0	0	0	0	0	1
RightHandIndex2	0	0	0	0	0	0	1
RightHandIndex3	0	0	0	0	0	0	1
RightHandIndex4	0	0	0	0	0	0	1
RightHandThumb1	0	0	0	0	0	0	1
RightHandThumb2	0	0	0	0	0	0	1
RightHandThumb3	0	0	0	0	0	0	1
RightHandThumb4	0	0	0	0	0	0	1
LeftUpLeg	0	0	0	0	0	0	1
LeftLeg	0	0	0	0	0	0	1
LeftFoot	0	0	0	0	0	0	1
LeftToeBase	0	0	0	0	0	0	1
RightUpLeg	0	0	0	0	0	0	1
RightLeg	0	0	0	0	0	0	1
RightFoot	0	0	0	0	0	0	1
RightToeBase	0	0	0	0	0	0	1
[Hips]
114	-4.079338074	1034.508911	21.6734314	-3.74433732	-5.311511993	-2.895102024	1.0
115	-4.194237709	1034.469116	21.79787636	-3.716573954	-5.34292984	-2.901258945	1.0
116	-4.308260441	1034.439331	21.93327332	-3.69764328	-5.36586237	-2.906434298	1.0
117	-4.401883602	1034.422485	22.07794571	-3.678113461	-5.385974407	-2.907377005	1.0
[Spine]
114	0	101.8159943	1.315000057	3.089001179	1.546069384	2.87577796	1.0
115	0	101.8159943	1.315000057	3.12154603	1.540742755	2.872369766	1.0
116	0	101.8159943	1.315000057	3.160339832	1.513495803	2.867477417	1.0
117	0	101.8159943	1.315000057	3.194534302	1.490876079	2.866691351	1.0
[Spine1]
114	0	100.8349991	-10.00800037	1.071563601	0.3769490123	1.595979929	1.0
115	0	100.8349991	-10.00800037	1.079847693	0.3748932481	1.595043063	1.0
116	0	100.8349991	-10.00800037	1.090203047	0.3639812768	1.593565702	1.0
117	0	100.8349991	-10.00800037	1.099166036	0.3549029827	1.593509912	1.0
[Spine2]
114	0	91	-13.73399925	1.046190739	0.3996766806	1.599422812	1.0
115	0	91	-13.73399925	1.054478884	0.3976475	1.598419189	1.0
116	0	91	-13.73399925	1.064848304	0.3867684305	1.596885204	1.0
117	0	91	-13.73399925	1.073826671	0.377715528	1.59677732	1.0
[Neck]
114	0	166.7169952	-25.16200066	5.297245979	-0.1948601454	0.5419417024	1.0
115	0	166.7169952	-25.16200066	5.33889246	-0.1961671412	0.5452486873	1.0
116	0	166.7169952	-25.16200066	5.38760376	-0.1942082494	0.553450048	1.0
117	0	166.7169952	-25.16200066	5.427866459	-0.1923815161	0.5582543612	1.0
[Head]
114	0	96.17900085	16.84999847	-7.793121338	1.274819851	-0.3130072355	1.0
115	0	96.17900085	16.84999847	-7.774858475	1.266314626	-0.2956501842	1.0
116	0	96.17900085	16.84999847	-7.747482777	1.263753533	-0.2657153904	1.0
117	0	96.17900085	16.84999847	-7.739999294	1.258863568	-0.2384878844	1.0
[LeftEye]
114	30.6760006	64.09500122	92.83599854	0	0	0	1.0
115	30.6760006	64.09500122	92.83599854	0	0	0	1.0
116	30.6760006	64.09500122	92.83599854	0	0	0	1.0
117	30.6760006	64.09500122	92.83599854	0	0	0	1.0
[RightEye]
114	-30.6760006	64.09500122	92.83499908	0	0	0	1.0
115	-30.6760006	64.09500122	92.83499908	0	0	0	1.0
116	-30.6760006	64.09500122	92.83499908	0	0	0	1.0
117	-30.6760006	64.09500122	92.83499908	0	0	0	1.0
[LeftShoulder]
114	45.70400238	109.4599991	-26.28000069	4.762872696	-16.15974045	-12.65671349	1.0
115	45.70400238	109.4599991	-26.28000069	4.768298149	-16.17805481	-12.68043518	1.0
116	45.70400238	109.4599991	-26.28000069	4.770048618	-16.18896866	-12.68626213	1.0
117	45.70400238	109.4599991	-26.28000069	4.772538662	-16.20074463	-12.69584274	1.0
[LeftArm]
114	105.923996	-5.24600029	-22.32099915	20.10176849	-3.152133465	-71.81848145	1.0
115	105.923996	-5.24600029	-22.32099915	20.09128189	-3.199277639	-71.75120544	1.0
116	105.923996	-5.24600029	-22.32099915	20.09363174	-3.247378349	-71.72399902	1.0
117	105.923996	-5.24600029	-22.32099915	20.096241	-3.292057276	-71.7053299	1.0
[LeftForeArm]
114	278.414978	-0.0009999999311	0	1.564719128e-06	-1.489534736	-0.0002147295309	1.0
115	278.414978	-0.0009999999311	0	-2.519211648e-06	-1.49353385	-0.0002141461591	1.0
116	278.414978	-0.0009999999311	0	-3.444301228e-06	-1.493515372	-0.0002133521484	1.0
117	278.414978	-0.0009999999311	0	-3.529235528e-06	-1.493007541	-0.0002130517096	1.0
[LeftHand]
114	283.2879944	0	0	-32.20294571	-4.435938835	-4.617289543	1.0
115	283.2879944	0	0	-32.23098755	-4.441495895	-4.60642767	1.0
116	283.2879944	0	0	-32.26974869	-4.42617178	-4.54114151	1.0
117	283.2879944	0	0	-32.30798721	-4.412668228	-4.478820801	1.0
[LeftHandThumb1]
114	24.6609993	-15.75	26.8239994	-0.4889889657	2.201390743	4.818541527	1.0
115	24.6609993	-15.75	26.8239994	-0.4889889657	2.201390743	4.818541527	1.0
116	24.6609993	-15.75	26.8239994	-0.4889889657	2.201390743	4.818541527	1.0
117	24.6609993	-15.75	26.8239994	-0.4889889657	2.201390743	4.818541527	1.0
[LeftHandThumb2]
114	32.29800034	-18.64699936	18.64699936	19.88581276	19.96446037	23.26738167	1.0
115	32.29800034	-18.64699936	18.64699936	19.88581276	19.96446037	23.26738167	1.0
116	32.29800034	-18.64699936	18.64699936	19.88581276	19.96446037	23.26738167	1.0
117	32.29800034	-18.64699936	18.64699936	19.88581276	19.96446037	23.26738167	1.0
[LeftHandThumb3]
114	26.52600098	-15.31499958	15.31499958	-13.14535904	5.551738262	7.967928886	1.0
115	26.52600098	-15.31499958	15.31499958	-13.14535904	5.551738262	7.967928886	1.0
116	26.52600098	-15.31499958	15.31499958	-13.14535904	5.551738262	7.967928886	1.0
117	26.52600098	-15.31499958	15.31499958	-13.14535904	5.551738262	7.967928886	1.0
[LeftHandThumb4]
114	19.54599953	-11.28499985	11.28499985	0	0	0	1.0
115	19.54599953	-11.28499985	11.28499985	0	0	0	1.0
116	19.54599953	-11.28499985	11.28499985	0	0	0	1.0
117	19.54599953	-11.28499985	11.28499985	0	0	0	1.0
[LeftHandIndex1]
114	91.09299469	-5.170999527	22.60099792	0.1480516791	-0.9618676901	-7.594518185	1.0
115	91.09299469	-5.170999527	22.60099792	0.1480516791	-0.9618676901	-7.594518185	1.0
116	91.09299469	-5.170999527	22.60099792	0.1480516791	-0.9618676901	-7.594518185	1.0
117	91.09299469	-5.170999527	22.60099792	0.1480516791	-0.9618676901	-7.594518185	1.0
[LeftHandIndex2]
114	36.76399994	0	0	-0.2667043209	1.745171905	-17.37646866	1.0
115	36.76399994	0	0	-0.2667043209	1.745171905	-17.37646866	1.0
116	36.76399994	0	0	-0.2667043209	1.745171905	-17.37646866	1.0
117	36.76399994	0	0	-0.2667043209	1.745171905	-17.37646866	1.0
[LeftHandIndex3]
114	28.83100128	0	0	-0.05742863193	0.817338407	-8.038370132	1.0
115	28.83100128	0	0	-0.05742863193	0.817338407	-8.038370132	1.0
116	28.83100128	0	0	-0.05742863193	0.817338407	-8.038370132	1.0
117	28.83100128	0	0	-0.05742863193	0.817338407	-8.038370132	1.0
[LeftHandIndex4]
114	23.92700005	0	0	0	0	0	1.0
115	23.92700005	0	0	0	0	0	1.0
116	23.92700005	0	0	0	0	0	1.0
117	23.92700005	0	0	0	0	0	1.0
[LeftHandMiddle1]
114	95.33399963	0	0	-0.7942916155	2.538622379	-15.71737862	1.0
115	95.33399963	0	0	-0.7942916155	2.538622379	-15.71737862	1.0
116	95.33399963	0	0	-0.7942916155	2.538622379	-15.71737862	1.0
117	95.33399963	0	0	-0.7942916155	2.538622379	-15.71737862	1.0
[LeftHandMiddle2]
114	36.98199844	0	0	-0.267610997	1.748071074	-17.40625954	1.0
115	36.98199844	0	0	-0.267610997	1.748071074	-17.40625954	1.0
116	36.98199844	0	0	-0.267610997	1.748071074	-17.40625954	1.0
117	36.98199844	0	0	-0.267610997	1.748071074	-17.40625954	1.0
[LeftHandMiddle3]
114	29.50900078	0	0	-0.2992140949	1.84580946	-18.41413307	1.0
115	29.50900078	0	0	-0.2992140949	1.84580946	-18.41413307	1.0
116	29.50900078	0	0	-0.2992140949	1.84580946	-18.41413307	1.0
117	29.50900078	0	0	-0.2992140949	1.84580946	-18.41413307	1.0
[LeftHandMiddle4]
114	28.3390007	0	0	0	0	0	1.0
115	28.3390007	0	0	0	0	0	1.0
116	28.3390007	0	0	0	0	0	1.0
117	28.3390007	0	0	0	0	0	1.0
[LeftHandRing1]
114	91.04499817	-0.4390000105	-18.65100098	-1.184956431	3.436642885	-21.16632462	1.0
115	91.04499817	-0.4390000105	-18.65100098	-1.184956431	3.436642885	-21.16632462	1.0
116	91.04499817	-0.4390000105	-18.65100098	-1.184956431	3.436642885	-21.16632462	1.0
117	91.04499817	-0.4390000105	-18.65100098	-1.184956431	3.436642885	-21.16632462	1.0
[LeftHandRing2]
114	31.54000092	0	0	-0.3849357069	2.085560799	-20.91281319	1.0
115	31.54000092	0	0	-0.3849357069	2.085560799	-20.91281319	1.0
116	31.54000092	0	0	-0.3849357069	2.085560799	-20.91281319	1.0
117	31.54000092	0	0	-0.3849357069	2.085560799	-20.91281319	1.0
[LeftHandRing3]
114	29.37700081	0	0	-0.2818065584	1.792707562	-17.86576271	1.0
115	29.37700081	0	0	-0.2818065584	1.792707562	-17.86576271	1.0
116	29.37700081	0	0	-0.2818065584	1.792707562	-17.86576271	1.0
117	29.37700081	0	0	-0.2818065584	1.792707562	-17.86576271	1.0
[LeftHandRing4]
114	26.47500038	0	0	0	0	0	1.0
115	26.47500038	0	0	0	0	0	1.0
116	26.47500038	0	0	0	0	0	1.0
117	26.47500038	0	0	0	0	0	1.0
[LeftHandPinky1]
114	80.77799988	-4.887000084	-38.06099701	-1.708467126	5.355370045	-27.1653862	1.0
115	80.77799988	-4.887000084	-38.06099701	-1.708467126	5.355370045	-27.1653862	1.0
116	80.77799988	-4.887000084	-38.06099701	-1.708467126	5.355370045	-27.1653862	1.0
117	80.77799988	-4.887000084	-38.06099701	-1.708467126	5.355370045	-27.1653862	1.0
[LeftHandPinky2]
114	36	0	0	-0.2676221728	1.748113751	-17.40663528	1.0
115	36	0	0	-0.2676221728	1.748113751	-17.40663528	1.0
116	36	0	0	-0.2676221728	1.748113751	-17.40663528	1.0
117	36	0	0	-0.2676221728	1.748113751	-17.40663528	1.0
[LeftHandPinky3]
114	21.14200211	0	0	-0.2408525199	1.660349369	-16.50663185	1.0
115	21.14200211	0	0	-0.2408525199	1.660349369	-16.50663185	1.0
116	21.14200211	0	0	-0.2408525199	1.660349369	-16.50663185	1.0
117	21.14200211	0	0	-0.2408525199	1.660349369	-16.50663185	1.0
[LeftHandPinky4]
114	19.75699997	0	0	0	0	0	1.0
115	19.75699997	0	0	0	0	0	1.0
116	19.75699997	0	0	0	0	0	1.0
117	19.75699997	0	0	0	0	0	1.0
[RightShoulder]
114	-45.70000076	109.4620056	-26.28000069	5.191652298	14.32863808	15.67298126	1.0
115	-45.70000076	109.4620056	-26.28000069	5.197991371	14.34442043	15.70311451	1.0
116	-45.70000076	109.4620056	-26.28000069	5.20210743	14.36554623	15.71678066	1.0
117	-45.70000076	109.4620056	-26.28000069	5.205951214	14.38581371	15.72917175	1.0
[RightArm]
114	-105.9280014	-5.248000145	-22.32099915	30.55694008	1.906737328	62.32607651	1.0
115	-105.9280014	-5.248000145	-22.32099915	30.54332352	1.895823359	62.33813858	1.0
116	-105.9280014	-5.248000145	-22.32099915	30.50187874	1.901616573	62.35469818	1.0
117	-105.9280014	-5.248000145	-22.32099915	30.46161842	1.908817291	62.36227798	1.0
[RightForeArm]
114	-278.414978	0	0	-3.386339358e-06	6.554644108	-1.82992917e-05	1.0
115	-278.414978	0	0	1.362280045e-06	6.561691284	-1.491224521e-05	1.0
116	-278.414978	0	0	4.7890112e-06	6.574242592	7.815359822e-06	1.0
117	-278.414978	0	0	6.788680366e-06	6.58737421	2.583485366e-05	1.0
[RightHand]
114	-283.2879944	0	0.0009999999311	-20.04065704	1.631029487	6.209444523	1.0
115	-283.2879944	0	0.0009999999311	-20.04508209	1.652370334	6.216309547	1.0
116	-283.2879944	0	0.0009999999311	-20.03277397	1.659164906	6.197200775	1.0
117	-283.2879944	0	0.0009999999311	-20.01919746	1.656399369	6.175394058	1.0
[RightHandPinky1]
114	-80.76699829	-4.885000229	-38.06000137	-1.507175922	-4.696118355	26.50587463	1.0
115	-80.76699829	-4.885000229	-38.06000137	-1.507175922	-4.696118355	26.50587463	1.0
116	-80.76699829	-4.885000229	-38.06000137	-1.507175922	-4.696118355	26.50587463	1.0
117	-80.76699829	-4.885000229	-38.06000137	-1.507175922	-4.696118355	26.50587463	1.0
[RightHandPinky2]
114	-36	0	0.0009999999311	-0.2127676606	-1.388874292	17.43785858	1.0
115	-36	0	0.0009999999311	-0.2127676606	-1.388874292	17.43785858	1.0
116	-36	0	0.0009999999311	-0.2127676606	-1.388874292	17.43785858	1.0
117	-36	0	0.0009999999311	-0.2127676606	-1.388874292	17.43785858	1.0
[RightHandPinky3]
114	-21.14200211	0	0	-0.1919144988	-1.32059598	16.53641129	1.0
115	-21.14200211	0	0	-0.1919144988	-1.32059598	16.53641129	1.0
116	-21.14200211	0	0	-0.1919144988	-1.32059598	16.53641129	1.0
117	-21.14200211	0	0	-0.1919144988	-1.32059598	16.53641129	1.0
[RightHandPinky4]
114	-19.75699997	0	0	0	0	0	1.0
115	-19.75699997	0	0	0	0	0	1.0
116	-19.75699997	0	0	0	0	0	1.0
117	-19.75699997	0	0	0	0	0	1.0
[RightHandRing1]
114	-91.03599548	-0.4390000105	-18.65100098	-1.045235753	-2.883111477	20.47788429	1.0
115	-91.03599548	-0.4390000105	-18.65100098	-1.045235753	-2.883111477	20.47788429	1.0
116	-91.03599548	-0.4390000105	-18.65100098	-1.045235753	-2.883111477	20.47788429	1.0
117	-91.03599548	-0.4390000105	-18.65100098	-1.045235753	-2.883111477	20.47788429	1.0
[RightHandRing2]
114	-31.54000092	0	0	-0.3066971898	-1.658752441	20.94926834	1.0
115	-31.54000092	0	0	-0.3066971898	-1.658752441	20.94926834	1.0
116	-31.54000092	0	0	-0.3066971898	-1.658752441	20.94926834	1.0
117	-31.54000092	0	0	-0.3066971898	-1.658752441	20.94926834	1.0
[RightHandRing3]
114	-29.37700081	0	0	-0.2245407403	-1.425854325	17.89771652	1.0
115	-29.37700081	0	0	-0.2245407403	-1.425854325	17.89771652	1.0
116	-29.37700081	0	0	-0.2245407403	-1.425854325	17.89771652	1.0
117	-29.37700081	0	0	-0.2245407403	-1.425854325	17.89771652	1.0
[RightHandRing4]
114	-26.47500038	0	0	0	0	0	1.0
115	-26.47500038	0	0	0	0	0	1.0
116	-26.47500038	0	0	0	0	0	1.0
117	-26.47500038	0	0	0	0	0	1.0
[RightHandMiddle1]
114	-95.32500458	0	0	-0.7017197609	-2.087752104	15.0152874	1.0
115	-95.32500458	0	0	-0.7017197609	-2.087752104	15.0152874	1.0
116	-95.32500458	0	0	-0.7017197609	-2.087752104	15.0152874	1.0
117	-95.32500458	0	0	-0.7017197609	-2.087752104	15.0152874	1.0
[RightHandMiddle2]
114	-36.98199844	0	0	-0.213228479	-1.390354872	17.43750381	1.0
115	-36.98199844	0	0	-0.213228479	-1.390354872	17.43750381	1.0
116	-36.98199844	0	0	-0.213228479	-1.390354872	17.43750381	1.0
117	-36.98199844	0	0	-0.213228479	-1.390354872	17.43750381	1.0
[RightHandMiddle3]
114	-29.50900078	0	0	-0.2384106964	-1.470119596	18.44692802	1.0
115	-29.50900078	0	0	-0.2384106964	-1.470119596	18.44692802	1.0
116	-29.50900078	0	0	-0.2384106964	-1.470119596	18.44692802	1.0
117	-29.50900078	0	0	-0.2384106964	-1.470119596	18.44692802	1.0
[RightHandMiddle4]
114	-28.3390007	0	0.0009999999311	0	0	0	1.0
115	-28.3390007	0	0.0009999999311	0	0	0	1.0
116	-28.3390007	0	0.0009999999311	0	0	0	1.0
117	-28.3390007	0	0.0009999999311	0	0	0	1.0
[RightHandIndex1]
114	-91.08300018	-5.167999744	22.60099792	0.1884763837	1.25192976	6.825599194	1.0
115	-91.08300018	-5.167999744	22.60099792	0.1884763837	1.25192976	6.825599194	1.0
116	-91.08300018	-5.167999744	22.60099792	0.1884763837	1.25192976	6.825599194	1.0
117	-91.08300018	-5.167999744	22.60099792	0.1884763837	1.25192976	6.825599194	1.0
[RightHandIndex2]
114	-36.76399994	0	0	-0.2125098109	-1.388050556	17.40767097	1.0
115	-36.76399994	0	0	-0.2125098109	-1.388050556	17.40767097	1.0
116	-36.76399994	0	0	-0.2125098109	-1.388050556	17.40767097	1.0
117	-36.76399994	0	0	-0.2125098109	-1.388050556	17.40767097	1.0
[RightHandIndex3]
114	-28.83100128	0	0	-0.04576345533	-0.650116384	8.053516388	1.0
115	-28.83100128	0	0	-0.04576345533	-0.650116384	8.053516388	1.0
116	-28.83100128	0	0	-0.04576345533	-0.650116384	8.053516388	1.0
117	-28.83100128	0	0	-0.04576345533	-0.650116384	8.053516388	1.0
[RightHandIndex4]
114	-23.92700005	0	0	0	0	0	1.0
115	-23.92700005	0	0	0	0	0	1.0
116	-23.92700005	0	0	0	0	0	1.0
117	-23.92700005	0	0	0	0	0	1.0
[RightHandThumb1]
114	-24.64799881	-15.72700024	26.82600021	-1.658462524	-0.2891407609	-4.221328735	1.0
115	-24.64799881	-15.72700024	26.82600021	-1.658462524	-0.2891407609	-4.221328735	1.0
116	-24.64799881	-15.72700024	26.82600021	-1.658462524	-0.2891407609	-4.221328735	1.0
117	-24.64799881	-15.72700024	26.82600021	-1.658462524	-0.2891407609	-4.221328735	1.0
[RightHandThumb2]
114	-32.29800034	-18.64699936	18.64699936	22.25259209	-23.88967514	-24.282444	1.0
115	-32.29800034	-18.64699936	18.64699936	22.25259209	-23.88967514	-24.282444	1.0
116	-32.29800034	-18.64699936	18.64699936	22.25259209	-23.88967514	-24.282444	1.0
117	-32.29800034	-18.64699936	18.64699936	22.25259209	-23.88967514	-24.282444	1.0
[RightHandThumb3]
114	-26.52600098	-15.31399918	15.31399918	-14.47830296	-6.743862152	-11.36570263	1.0
115	-26.52600098	-15.31399918	15.31399918	-14.47830296	-6.743862152	-11.36570263	1.0
116	-26.52600098	-15.31399918	15.31399918	-14.47830296	-6.743862152	-11.36570263	1.0
117	-26.52600098	-15.31399918	15.31399918	-14.47830296	-6.743862152	-11.36570263	1.0
[RightHandThumb4]
114	-19.54599953	-11.28499985	11.28499985	0	0	0	1.0
115	-19.54599953	-11.28499985	11.28499985	0	0	0	1.0
116	-19.54599953	-11.28499985	11.28499985	0	0	0	1.0
117	-19.54599953	-11.28499985	11.28499985	0	0	0	1.0
[LeftUpLeg]
114	82.07800293	-67.51699829	-15.99599934	-7.105771542	16.07820511	7.610433578	1.0
115	82.07800293	-67.51699829	-15.99599934	-7.137931824	16.09570503	7.622893333	1.0
116	82.07800293	-67.51699829	-15.99599934	-7.162096977	16.11399078	7.636311531	1.0
117	82.07800293	-67.51699829	-15.99599934	-7.18007803	16.12928391	7.643461227	1.0
[LeftLeg]
114	0	-443.7049866	2.845999956	11.36417484	1.10347116	4.622402191	1.0
115	0	-443.7049866	2.845999956	11.40194988	1.116227984	4.624025345	1.0
116	0	-443.7049866	2.845999956	11.43884087	1.121328712	4.622269154	1.0
117	0	-443.7049866	2.845999956	11.46128559	1.127119422	4.620107651	1.0
[LeftFoot]
114	0	-444.2789917	-29.8219986	1.431268096	0.7051573992	-7.376276016	1.0
115	0	-444.2789917	-29.8219986	1.407571077	0.7047285438	-7.382693291	1.0
116	0	-444.2789917	-29.8219986	1.389471889	0.7039885521	-7.383469105	1.0
117	0	-444.2789917	-29.8219986	1.378199697	0.7035443187	-7.383739471	1.0
[LeftToeBase]
114	0	-87.28699493	107.1060028	-4.890855312	1.018766397e-06	-4.889379852e-07	1.0
115	0	-87.28699493	107.1060028	-4.896379471	-4.953641564e-06	8.206727671e-07	1.0
116	0	-87.28699493	107.1060028	-4.899871349	4.837906999e-07	1.147908733e-06	1.0
117	0	-87.28699493	107.1060028	-4.90255022	6.613932328e-06	1.055955636e-06	1.0
[RightUpLeg]
114	-82.07800293	-67.51699829	-15.99599934	0.8499591351	-10.69046402	3.03578043	1.0
115	-82.07800293	-67.51699829	-15.99599934	0.8129390478	-10.68473148	3.051441193	1.0
116	-82.07800293	-67.51699829	-15.99599934	0.7927455902	-10.68291092	3.063797951	1.0
117	-82.07800293	-67.51699829	-15.99599934	0.7768199444	-10.67895889	3.071645975	1.0
[RightLeg]
114	0	-443.7049866	2.861999989	7.953607082	-9.25630188	-4.564396858	1.0
115	0	-443.7049866	2.861999989	7.983144283	-9.255311012	-4.567591667	1.0
116	0	-443.7049866	2.861999989	8.00122261	-9.254526138	-4.570381165	1.0
117	0	-443.7049866	2.861999989	8.009464264	-9.254110336	-4.573637486	1.0
[RightFoot]
114	0	-444.2770081	-29.83799934	-4.330664635	-1.312767744	3.2394104	1.0
115	0	-444.2770081	-29.83799934	-4.350391388	-1.291915417	3.235515594	1.0
116	0	-444.2770081	-29.83799934	-4.366781712	-1.265073061	3.232548714	1.0
117	0	-444.2770081	-29.83799934	-4.378358364	-1.241577148	3.231629848	1.0
[RightToeBase]
114	0	-87.28699493	107.1060028	-6.911035538	2.730710912e-05	-1.181395987e-06	1.0
115	0	-87.28699493	107.1060028	-6.899901867	1.840899677e-05	-1.032843215e-06	1.0
116	0	-87.28699493	107.1060028	-6.909621716	1.008708205e-05	-5.365878906e-07	1.0
117	0	-87.28699493	107.1060028	-6.920377731	3.064739303e-06	-7.187362883e-08	1.0
[EndOfFile]
